G04*
G04 #@! TF.GenerationSoftware,Altium Limited,Altium Designer,26.1.1 (7)*
G04*
G04 Layer_Color=8388736*
%FSLAX44Y44*%
%MOMM*%
G71*
G04*
G04 #@! TF.SameCoordinates,62FD7E26-1796-4D49-8CA8-53D9006279ED*
G04*
G04*
G04 #@! TF.FilePolarity,Negative*
G04*
G01*
G75*
%ADD10R,6.0000X6.0000*%
%ADD11R,1.0032X1.0032*%
%ADD12R,0.6000X0.6000*%
%ADD13R,0.8032X1.8032*%
%ADD14R,0.6000X0.6000*%
%ADD15R,1.4532X0.9032*%
%ADD16R,0.6516X0.9016*%
G04:AMPARAMS|DCode=17|XSize=1.8532mm|YSize=1.8532mm|CornerRadius=0.5141mm|HoleSize=0mm|Usage=FLASHONLY|Rotation=270.000|XOffset=0mm|YOffset=0mm|HoleType=Round|Shape=RoundedRectangle|*
%AMROUNDEDRECTD17*
21,1,1.8532,0.8250,0,0,270.0*
21,1,0.8250,1.8532,0,0,270.0*
1,1,1.0282,-0.4125,-0.4125*
1,1,1.0282,-0.4125,0.4125*
1,1,1.0282,0.4125,0.4125*
1,1,1.0282,0.4125,-0.4125*
%
%ADD17ROUNDEDRECTD17*%
%ADD18C,1.8532*%
%ADD19C,5.0032*%
%ADD20C,2.2032*%
%ADD21R,2.2032X2.2032*%
%ADD22C,1.7032*%
G04:AMPARAMS|DCode=23|XSize=1.7032mm|YSize=1.7032mm|CornerRadius=0.4766mm|HoleSize=0mm|Usage=FLASHONLY|Rotation=0.000|XOffset=0mm|YOffset=0mm|HoleType=Round|Shape=RoundedRectangle|*
%AMROUNDEDRECTD23*
21,1,1.7032,0.7500,0,0,0.0*
21,1,0.7500,1.7032,0,0,0.0*
1,1,0.9532,0.3750,-0.3750*
1,1,0.9532,-0.3750,-0.3750*
1,1,0.9532,-0.3750,0.3750*
1,1,0.9532,0.3750,0.3750*
%
%ADD23ROUNDEDRECTD23*%
%ADD24R,2.2032X2.2032*%
G04:AMPARAMS|DCode=25|XSize=1.8032mm|YSize=1.8032mm|CornerRadius=0.5016mm|HoleSize=0mm|Usage=FLASHONLY|Rotation=90.000|XOffset=0mm|YOffset=0mm|HoleType=Round|Shape=RoundedRectangle|*
%AMROUNDEDRECTD25*
21,1,1.8032,0.8000,0,0,90.0*
21,1,0.8000,1.8032,0,0,90.0*
1,1,1.0032,0.4000,0.4000*
1,1,1.0032,0.4000,-0.4000*
1,1,1.0032,-0.4000,-0.4000*
1,1,1.0032,-0.4000,0.4000*
%
%ADD25ROUNDEDRECTD25*%
%ADD26C,1.8032*%
G04:AMPARAMS|DCode=27|XSize=1.8032mm|YSize=1.8032mm|CornerRadius=0.5016mm|HoleSize=0mm|Usage=FLASHONLY|Rotation=180.000|XOffset=0mm|YOffset=0mm|HoleType=Round|Shape=RoundedRectangle|*
%AMROUNDEDRECTD27*
21,1,1.8032,0.8000,0,0,180.0*
21,1,0.8000,1.8032,0,0,180.0*
1,1,1.0032,-0.4000,0.4000*
1,1,1.0032,0.4000,0.4000*
1,1,1.0032,0.4000,-0.4000*
1,1,1.0032,-0.4000,-0.4000*
%
%ADD27ROUNDEDRECTD27*%
%ADD28C,0.6532*%
%ADD29C,3.2032*%
%ADD30C,6.2032*%
D10*
X1119997Y1070000D02*
D03*
Y30000D02*
D03*
X-19997Y30000D02*
D03*
X-20000Y1070000D02*
D03*
D11*
X170434Y810808D02*
D03*
Y825808D02*
D03*
Y490808D02*
D03*
Y505808D02*
D03*
Y185808D02*
D03*
Y170808D02*
D03*
D12*
X115810Y634970D02*
D03*
X124810D02*
D03*
X115810Y954970D02*
D03*
X124810D02*
D03*
Y314970D02*
D03*
X115810D02*
D03*
D13*
X101260Y620580D02*
D03*
X113960D02*
D03*
X126660D02*
D03*
X139360D02*
D03*
X101260Y568080D02*
D03*
X113960D02*
D03*
X126660D02*
D03*
X139360D02*
D03*
X101260Y940580D02*
D03*
X113960D02*
D03*
X126660D02*
D03*
X139360D02*
D03*
X101260Y888080D02*
D03*
X113960D02*
D03*
X126660D02*
D03*
X139360D02*
D03*
Y248080D02*
D03*
X126660Y300580D02*
D03*
X101260D02*
D03*
X113960D02*
D03*
X139360D02*
D03*
X101260Y248080D02*
D03*
X113960D02*
D03*
X126660D02*
D03*
D14*
X91100Y568080D02*
D03*
Y577080D02*
D03*
Y888080D02*
D03*
Y897080D02*
D03*
X717194Y900500D02*
D03*
X672595D02*
D03*
X627996D02*
D03*
X583396D02*
D03*
X538797D02*
D03*
X494198D02*
D03*
X449599D02*
D03*
X405000D02*
D03*
X91100Y257080D02*
D03*
X717194Y909500D02*
D03*
X672595D02*
D03*
X627996D02*
D03*
X583396D02*
D03*
X538797D02*
D03*
X494198D02*
D03*
X449599D02*
D03*
X405000D02*
D03*
X91100Y248080D02*
D03*
D15*
X155220Y490848D02*
D03*
Y510848D02*
D03*
X83820Y490848D02*
D03*
Y510848D02*
D03*
Y810848D02*
D03*
Y830848D02*
D03*
X155220Y810848D02*
D03*
Y830848D02*
D03*
Y170848D02*
D03*
Y190848D02*
D03*
X83820Y170848D02*
D03*
Y190848D02*
D03*
D16*
X417700Y892250D02*
D03*
X436700D02*
D03*
X462299D02*
D03*
X481299D02*
D03*
X506898D02*
D03*
X525898D02*
D03*
X551497D02*
D03*
X570497D02*
D03*
X596097D02*
D03*
X615097D02*
D03*
X640696D02*
D03*
X659696D02*
D03*
X685295D02*
D03*
X704295D02*
D03*
X729894D02*
D03*
X748894D02*
D03*
X417700Y917750D02*
D03*
X436700D02*
D03*
X427200Y892250D02*
D03*
X462299Y917750D02*
D03*
X481299D02*
D03*
X471799Y892250D02*
D03*
X506898Y917750D02*
D03*
X525898D02*
D03*
X516398Y892250D02*
D03*
X551497Y917750D02*
D03*
X570497D02*
D03*
X560998Y892250D02*
D03*
X596097Y917750D02*
D03*
X615097D02*
D03*
X605597Y892250D02*
D03*
X640696Y917750D02*
D03*
X659696D02*
D03*
X650196Y892250D02*
D03*
X685295Y917750D02*
D03*
X704295D02*
D03*
X694795Y892250D02*
D03*
X729894Y917750D02*
D03*
X748894D02*
D03*
X739394Y892250D02*
D03*
D17*
X106820Y536510D02*
D03*
Y856510D02*
D03*
X57200Y494600D02*
D03*
X106820Y216510D02*
D03*
X57200Y814600D02*
D03*
Y174600D02*
D03*
D18*
X132220Y536510D02*
D03*
X106820Y511110D02*
D03*
Y485710D02*
D03*
X132220Y511110D02*
D03*
Y485710D02*
D03*
Y856510D02*
D03*
X106820Y831110D02*
D03*
Y805710D02*
D03*
X132220Y831110D02*
D03*
Y805710D02*
D03*
X28800Y591550D02*
D03*
Y563850D02*
D03*
Y536150D02*
D03*
Y508450D02*
D03*
X57200Y522300D02*
D03*
Y605400D02*
D03*
Y577700D02*
D03*
Y550000D02*
D03*
Y870000D02*
D03*
Y230000D02*
D03*
X132220Y216510D02*
D03*
X106820Y191110D02*
D03*
Y165710D02*
D03*
X132220Y191110D02*
D03*
Y165710D02*
D03*
X28800Y911550D02*
D03*
Y883850D02*
D03*
Y856150D02*
D03*
Y828450D02*
D03*
X57200Y842300D02*
D03*
Y925400D02*
D03*
Y897700D02*
D03*
X28800Y271550D02*
D03*
Y243850D02*
D03*
Y216150D02*
D03*
Y188450D02*
D03*
X57200Y202300D02*
D03*
Y285400D02*
D03*
Y257700D02*
D03*
D19*
X43000Y425000D02*
D03*
Y675000D02*
D03*
Y995000D02*
D03*
Y745000D02*
D03*
Y355000D02*
D03*
Y105000D02*
D03*
D20*
X1029992Y325000D02*
D03*
Y375000D02*
D03*
X462500Y979000D02*
D03*
X1029992Y557500D02*
D03*
X1030000Y827300D02*
D03*
Y692300D02*
D03*
X1029992Y300000D02*
D03*
Y350000D02*
D03*
X487500Y979000D02*
D03*
X512500D02*
D03*
X537500D02*
D03*
X562500D02*
D03*
X587500D02*
D03*
X612500D02*
D03*
X637500D02*
D03*
X662500D02*
D03*
X1029992Y532500D02*
D03*
Y457500D02*
D03*
Y482500D02*
D03*
Y507500D02*
D03*
X1030000Y777300D02*
D03*
Y802300D02*
D03*
Y642300D02*
D03*
Y667300D02*
D03*
D21*
X1029992Y275000D02*
D03*
Y432500D02*
D03*
X1030000Y752300D02*
D03*
Y617300D02*
D03*
D22*
X213400Y753200D02*
D03*
X238800D02*
D03*
Y727800D02*
D03*
X365800Y372200D02*
D03*
Y346800D02*
D03*
X950000Y753200D02*
D03*
X924600D02*
D03*
X899200D02*
D03*
X873800D02*
D03*
X848400D02*
D03*
X823000D02*
D03*
X797600D02*
D03*
X772200D02*
D03*
X746800D02*
D03*
X950000Y727800D02*
D03*
X924600D02*
D03*
X899200D02*
D03*
X873800D02*
D03*
X848400D02*
D03*
X823000D02*
D03*
X797600D02*
D03*
X772200D02*
D03*
X746800D02*
D03*
X721400Y753200D02*
D03*
X696000D02*
D03*
X721400Y727800D02*
D03*
X696000D02*
D03*
X619800Y753200D02*
D03*
Y727800D02*
D03*
X594400Y753200D02*
D03*
Y727800D02*
D03*
X543600Y753200D02*
D03*
Y727800D02*
D03*
X416600Y753200D02*
D03*
Y727800D02*
D03*
X365800Y753200D02*
D03*
Y727800D02*
D03*
X315000Y753200D02*
D03*
Y727800D02*
D03*
X264200Y753200D02*
D03*
Y727800D02*
D03*
X289600D02*
D03*
Y753200D02*
D03*
X340400Y727800D02*
D03*
Y753200D02*
D03*
X391200Y727800D02*
D03*
Y753200D02*
D03*
X442000Y727800D02*
D03*
Y753200D02*
D03*
X467400Y727800D02*
D03*
Y753200D02*
D03*
X492800Y727800D02*
D03*
Y753200D02*
D03*
X518200Y727800D02*
D03*
Y753200D02*
D03*
X569000Y727800D02*
D03*
Y753200D02*
D03*
X645200Y727800D02*
D03*
X670600D02*
D03*
X645200Y753200D02*
D03*
X670600D02*
D03*
X950000Y372200D02*
D03*
X924600D02*
D03*
X899200D02*
D03*
X873800D02*
D03*
X848400D02*
D03*
X823000D02*
D03*
X797600D02*
D03*
X772200D02*
D03*
X746800D02*
D03*
X950000Y346800D02*
D03*
X924600D02*
D03*
X899200D02*
D03*
X873800D02*
D03*
X848400D02*
D03*
X823000D02*
D03*
X797600D02*
D03*
X772200D02*
D03*
X746800D02*
D03*
X721400Y372200D02*
D03*
X696000D02*
D03*
X721400Y346800D02*
D03*
X696000D02*
D03*
X619800Y372200D02*
D03*
Y346800D02*
D03*
X594400Y372200D02*
D03*
Y346800D02*
D03*
X543600Y372200D02*
D03*
Y346800D02*
D03*
X416600Y372200D02*
D03*
Y346800D02*
D03*
X315000Y372200D02*
D03*
Y346800D02*
D03*
X264200Y372200D02*
D03*
Y346800D02*
D03*
X238800Y372200D02*
D03*
Y346800D02*
D03*
X213400Y372200D02*
D03*
X289600Y346800D02*
D03*
Y372200D02*
D03*
X340400Y346800D02*
D03*
Y372200D02*
D03*
X391200Y346800D02*
D03*
Y372200D02*
D03*
X442000Y346800D02*
D03*
Y372200D02*
D03*
X467400Y346800D02*
D03*
Y372200D02*
D03*
X492800Y346800D02*
D03*
Y372200D02*
D03*
X518200Y346800D02*
D03*
Y372200D02*
D03*
X569000Y346800D02*
D03*
Y372200D02*
D03*
X645200Y346800D02*
D03*
X670600D02*
D03*
X645200Y372200D02*
D03*
X670600D02*
D03*
D23*
X213400Y727800D02*
D03*
Y346800D02*
D03*
D24*
X687500Y979000D02*
D03*
D25*
X358394Y915162D02*
D03*
D26*
Y940562D02*
D03*
Y965962D02*
D03*
X140000Y31510D02*
D03*
X114600D02*
D03*
D27*
X165400D02*
D03*
D28*
X170434Y835968D02*
D03*
Y515968D02*
D03*
Y195968D02*
D03*
X91100Y583430D02*
D03*
X126660Y607880D02*
D03*
X139360Y555380D02*
D03*
X101260D02*
D03*
X113960Y607880D02*
D03*
Y927880D02*
D03*
X101260Y875380D02*
D03*
X139360D02*
D03*
X126660Y927880D02*
D03*
X91100Y903430D02*
D03*
X577997Y891250D02*
D03*
X533398D02*
D03*
X488799D02*
D03*
X444200D02*
D03*
X622597D02*
D03*
X667196D02*
D03*
X711795D02*
D03*
X756394D02*
D03*
X91100Y263430D02*
D03*
X126660Y287880D02*
D03*
X139360Y235380D02*
D03*
X729894Y928750D02*
D03*
X685295D02*
D03*
X640696D02*
D03*
X596097D02*
D03*
X551497D02*
D03*
X506898D02*
D03*
X462299D02*
D03*
X417700D02*
D03*
X739394Y881250D02*
D03*
X694795D02*
D03*
X650196D02*
D03*
X560998D02*
D03*
X605597D02*
D03*
X516398D02*
D03*
X471799D02*
D03*
X427200D02*
D03*
X101260Y235380D02*
D03*
X113960Y287880D02*
D03*
D29*
X1120000Y1070000D02*
D03*
Y30000D02*
D03*
X-20000Y1070000D02*
D03*
Y30000D02*
D03*
D30*
X924600Y677000D02*
D03*
Y423000D02*
D03*
X429300Y677000D02*
D03*
Y423000D02*
D03*
M02*
