M48
;Layer_Color=9474304
;FILE_FORMAT=4:4
METRIC,LZ
;TYPE=PLATED
T01F00S00C0.2000
T02F00S00C1.0000
T03F00S00C1.0200
T04F00S00C1.0900
T05F00S00C3.0000
T06F00S00C3.2000
%
T01
X0014627Y0021242
X001831Y0021145
X001958
X0021866Y002359
X002085Y0026395
X001704
X001831Y005385
X001958
X0014627Y0053947
X001704Y00591
X002085
X0021866Y0056295
X001958Y008444
X001831
X0014627Y0084537
X001704Y008969
X002085
X0021866Y0086885
T02
X01029992Y00275
Y003
Y00325
Y0035
Y00375
Y004325
Y004575
Y004825
Y005075
Y005325
Y005575
X0103Y006173
Y006423
Y006673
Y006923
Y007523
Y007773
Y008023
Y008273
X006875Y00804
X006625
X006375
X006125
X005875
X005625
X005375
X005125
X004875
X004625
T03
X002134Y003468
X002388
X002642
Y003722
X002388
X002134
X002896
Y003468
X00315
Y003722
X003404
X003658
Y003468
X003404
X003912
X004166
Y003722
X003912
X00442
Y003468
X004674
Y003722
X004928
Y003468
X005182
X005436
Y003722
X005182
X00569
X005944
X006198
Y003468
X005944
X00569
X006452
X006706
X00696
Y003722
X006706
X006452
X007214
X007468
X007722
X007976
X00823
X008484
X008738
X008992
X009246
X0095
Y003468
X009246
X008992
X008738
X008484
X00823
X007976
X007722
X007468
X007214
Y007278
X007468
Y007532
X007722
X007976
X00823
X008484
X008738
X008992
X009246
X0095
Y007278
X009246
X008992
X008738
X008484
X00823
X007976
X007722
X007214Y007532
X00696
Y007278
X006706
X006452
X006198
Y007532
X005944
Y007278
X00569
X005436
Y007532
X005182
X004928
X004674
X00442
X004166
Y007278
X003912
X003658
Y007532
X003404
X00315
Y007278
X003404
X003912Y007532
X00442Y007278
X004674
X004928
X005182
X00569Y007532
X006452
X006706
X002896
X002642
Y007278
X002388
Y007532
X002134
Y007278
X002896
T04
X000788Y0018845
Y0021615
Y0024385
Y0027155
X001072Y002854
Y002577
Y0023
Y002023
Y001746
Y004946
Y005223
X000788Y0053615
Y0050845
Y0056385
Y0059155
X001072Y006054
Y005777
Y0055
Y008146
Y008423
Y0087
Y008977
Y009254
X000788Y0091155
Y0088385
Y0085615
Y0082845
T05
X0112Y0003
X0003Y0003
X004293Y00423
X009246
Y00677
X004293
X0003Y0107
X0112Y0107
T06
X00093Y00105
Y00355
Y00425
Y00675
Y00745
Y00995
M30
